<svg width="72" height="72" viewBox="0 0 72 72" fill="none" xmlns="http://www.w3.org/2000/svg">
<path d="M46.7072 40.5C46.7072 41.305 46.0539 41.9583 45.2489 41.9583C44.444 41.9583 43.7907 41.305 43.7907 40.5C43.7907 39.695 44.444 39.0417 45.2489 39.0417C46.0539 39.0417 46.7072 39.695 46.7072 40.5ZM53.9985 41.2292V45.6042C53.9985 46.8102 53.0171 47.7917 51.8111 47.7917H51.5005C50.2566 50.4838 48.0167 52.5721 45.2489 53.6206V54.3542C45.2489 56.3652 43.6128 58 41.6033 58C39.8417 58 38.3703 56.7458 38.0305 55.0833H33.5084C33.1701 56.7458 31.6972 58 29.9357 58C27.9262 58 26.29 56.3652 26.29 54.3542V53.6221C21.4617 51.7992 18.5101 47.0173 19.0672 41.8081C19.2626 39.9881 19.9261 38.2965 20.9323 36.8381C19.738 36.0346 19.0001 34.6813 19.0001 33.2083C19.0001 30.7963 20.9629 28.8333 23.3749 28.8333C23.7774 28.8333 24.104 29.16 24.104 29.5625C24.104 29.965 23.7774 30.2917 23.3749 30.2917C21.7664 30.2917 20.4584 31.5998 20.4584 33.2083C20.4584 34.2292 20.9892 35.164 21.8408 35.6904C24.0078 33.2812 27.2058 31.75 30.6852 31.75H41.0652C41.5653 29.876 42.9988 28.3915 45.1643 27.531C45.8424 27.2627 46.608 27.3458 47.2088 27.7542C47.8082 28.161 48.1669 28.8377 48.1669 29.564V34.1198C49.8016 35.3929 51.0747 37.1152 51.8082 39.0402H51.8126C52.6919 39.0402 54 39.6221 54 41.2277L53.9985 41.2292ZM52.5403 41.2292C52.5403 40.6444 52.1422 40.5088 51.8053 40.5H51.2905C50.9756 40.5 50.6956 40.2958 50.5964 39.9969C49.9591 38.0398 48.6832 36.2927 47.0076 35.075C46.818 34.9379 46.7057 34.7192 46.7057 34.4858V29.5654C46.7057 29.319 46.5891 29.1002 46.3864 28.9617C46.1808 28.8217 45.9285 28.7983 45.6995 28.8873C44.3536 29.421 42.6838 30.5017 42.3718 32.6075C42.3164 32.9735 42.0101 33.2302 41.628 33.2302L30.6837 33.2083C25.5083 33.2083 21.0417 37.054 20.5152 41.9627C20.0136 46.6585 22.7799 50.9548 27.2451 52.4117C27.5455 52.5094 27.7482 52.7894 27.7482 53.1058V54.3542C27.7482 55.5602 28.7297 56.5417 29.9357 56.5417C31.1416 56.5417 32.1231 55.5602 32.1231 54.3542C32.1231 53.9517 32.4497 53.625 32.8522 53.625H38.6853C39.0877 53.625 39.4144 53.9517 39.4144 54.3542C39.4144 55.5602 40.3958 56.5417 41.6018 56.5417C42.8078 56.5417 43.7892 55.5602 43.7892 54.3542V53.1058C43.7892 52.7894 43.9919 52.5108 44.2923 52.4117C47.0411 51.5162 49.2475 49.4644 50.347 46.7869C50.4593 46.5127 50.7262 46.3333 51.0208 46.3333H51.8097C52.2122 46.3333 52.5388 46.0052 52.5388 45.6042L52.5403 41.2292ZM28.4788 29.5625C28.8813 29.5625 29.208 29.2358 29.208 28.8333C29.208 26.4213 31.1708 24.4583 33.5828 24.4583C35.9948 24.4583 37.9576 26.4213 37.9576 28.8333C37.9576 29.2358 38.2842 29.5625 38.6867 29.5625C39.0892 29.5625 39.4159 29.2358 39.4159 28.8333C39.4159 25.6162 36.7997 23 33.5828 23C30.3658 23 27.7497 25.6162 27.7497 28.8333C27.7497 29.2358 28.0764 29.5625 28.4788 29.5625Z" fill="black"/>
<path d="M40.1534 15.4934L38.0298 14.3163L39.8059 12.0805C39.8586 12.0142 39.8963 11.9373 39.9162 11.855C39.9361 11.7727 39.9379 11.687 39.9213 11.604C39.9048 11.521 39.8703 11.4425 39.8204 11.3742C39.7704 11.3058 39.7061 11.2492 39.6321 11.2082L37.0071 9.75313C36.8866 9.68636 36.7463 9.66448 36.6111 9.69139C36.476 9.7183 36.3547 9.79225 36.2689 9.9001L32.5954 14.5243C32.5427 14.5905 32.5051 14.6674 32.4852 14.7497C32.4652 14.8319 32.4635 14.9175 32.48 15.0005C32.4965 15.0835 32.5308 15.1619 32.5807 15.2303C32.6306 15.2986 32.6947 15.3553 32.7687 15.3963L34.8067 16.526L32.5474 20.602L40.1471 16.5163C40.2394 16.4668 40.3165 16.3933 40.3705 16.3036C40.4245 16.214 40.4533 16.1114 40.454 16.0067C40.4546 15.902 40.427 15.7991 40.3741 15.7088C40.3212 15.6185 40.245 15.5441 40.1534 15.4934Z" fill="#FFC000"/>
</svg>
